<svg xmlns="http://www.w3.org/2000/svg" viewBox="0 0 678.19 965.19"><defs><style>.cls-1{fill:#ee7e97;}.cls-2{fill:#27aae2;}.cls-3{fill:#d4d92e;}.cls-4{fill:#fff;}.cls-5{fill:#a8b11b;}.cls-6{fill:#a6b026;}.cls-7{fill:#a3ad25;}.cls-8{fill:#cfd612;}.cls-9{fill:#b2b945;}.cls-10{fill:#b2ba3a;}.cls-11{fill:#e6287d;}.cls-12{fill:#9aa620;}.cls-13{fill:#e50d65;}.cls-14{fill:#e51069;}.cls-15{fill:#e62a72;}.cls-16{fill:#e62a73;}.cls-17{fill:#231f20;}.cls-18{fill:#e73188;}.cls-19{fill:#e73086;}.cls-20{fill:#e73186;}.cls-21{fill:#010101;}.cls-22{fill:#e5126b;}.cls-23{fill:#e50c69;}.cls-24{fill:#060505;}.cls-25{fill:#af1a1a;}</style></defs><g id="Layer_2" data-name="Layer 2"><g id="logo8"><rect class="cls-1" x="471.11" y="303.22" width="207.07" height="207.07" rx="29.58"/><rect class="cls-1" x="242.46" y="529.42" width="207.07" height="207.07" rx="29.58"/><rect class="cls-2" x="471.11" y="758.11" width="207.07" height="207.07" rx="29.58"/><rect class="cls-3" x="15.34" y="303.22" width="207.07" height="661.96" rx="37.86"/><path class="cls-1" d="M474.62,437.42c-1.38,9-7.48,41.56-36.66,66.91a111.42,111.42,0,0,1-61.45,26.41l69.75,73.17c.5-8.47,3.3-38.26,27.24-64,26.68-28.71,60.61-32,68.25-32.51Z"/><g id="NeGyQc.tif"><path class="cls-3" d="M137.46,369.78c.72-2-2.29-4.21-2.5-5.6a590.34,590.34,0,0,1-6.22-58.77c-1.15-22.11-1.55-44.08,3.1-65.91.89-4.18,2.2-6.15,6.89-6.9,22.73-3.62,42.5-13.53,59.83-28.51,33.18-28.68,50.61-81,30.91-128.88-16.17-39.29-45.4-64.69-87.89-72.72-41-7.76-77.14,2.55-107.39,32-35,34-45.85,94.24-19.75,138.68,18.85,32.09,46.15,51.63,82.6,59.05,3.36.69,5.7,1.12,6,5.42.79,13.22,4.13,26.45,2.87,39.63-2.3,24,1.9,19.29-.13,49.22-1.85,27.37-5.6,34.88.33,41.18C114.65,376.76,135.63,375,137.46,369.78Z"/><path class="cls-4" d="M23,155.85c.3-5.33-2.77-9.79-4-14.74-3.08-12.85-2.34-25.74-.75-38.66-.49-2.1.69-3.9,1-5.85C20.71,84.47,26.68,74.2,32.76,64c7.79-13.15,20.4-21.33,32.06-30.51A119.44,119.44,0,0,1,80.06,26c8-2.4,15.94-5.24,24.4-6.06Q165.68,14,203.12,62.26c4.72,6.1,7.51,13.45,10.84,20.41,1.95,4.89,2.26,10.19,3.9,15.16,0,2.49.79,4.88.9,7.36.44,7.62,1.61,15.29,1.18,22.87-1.62,28.6-15.19,50.95-36.67,69.71C140.5,235.14,72.54,226,38.08,182.32c-1.4-1.78-1.81-4.3-4.13-5.37A65.35,65.35,0,0,1,23,155.85Z"/><path class="cls-5" d="M212.75,82.31c-6-12.66-12.75-24.89-23.52-34.26C158.61,21.41,124,12.7,84.65,25.62a16.22,16.22,0,0,1-3.06.41,50.58,50.58,0,0,0-16.92,8.42c-4,5.17-10.26,7.58-15.1,11.74-6.18,5.29-10.87,11.88-16.08,18-1.79,1.38-2.29,5.4-6,2.87C45.73,27.43,92.15,4.22,136.55,12.53c26.54,5,48.08,18.09,64.35,39.35,6.93,9.06,12.69,18.93,14.54,30.49C214.51,83.74,213.64,82.84,212.75,82.31Z"/><path class="cls-6" d="M27.49,68c2.8.68,3.94-2,6-2.87-6.34,10.1-10.23,21.29-14.62,32.25l-.14,0C19.12,86.82,22.47,77.14,27.49,68Z"/><path class="cls-7" d="M212.75,83.18l2.69.06a40.75,40.75,0,0,1,2.92,16.87,1.18,1.18,0,0,1-.93-1.41Z"/><path class="cls-8" d="M23,155.85,34,177A39.09,39.09,0,0,1,23,155.85Z"/><path class="cls-9" d="M217.43,98.7l.93,1.4c1.07,1.63,1.48,3.3.4,5.09C218,103.09,216.84,101.07,217.43,98.7Z"/><path class="cls-10" d="M18.73,97.37l.14,0c1.43,1.88-.07,3.44-.54,5.12C17.08,100.65,17.41,99,18.73,97.37Z"/><path class="cls-11" d="M178.59,77.64c1.84.87,2.67,2.5,3.27,4.29a29.37,29.37,0,0,0,5.06,9.87c13.93,30.94,1.16,70.86-28.3,88.47a43.88,43.88,0,0,0-12.34,6.2c-1.51,1-3.05,2-5,1.49-2.37-.19-4,1.2-5.73,2.5-27.43,5.2-51.84-1.17-70.57-21.73C33.66,134.35,42.25,83.79,77.43,59.44c32.24-22.33,73-13.61,93.35,8.09,1.54,1.65,4,2.42,4.8,4.79C176.22,74.3,176.64,76.4,178.59,77.64Z"/><path class="cls-12" d="M64.67,35.32A28.31,28.31,0,0,1,81.59,26.9Z"/><path class="cls-13" d="M146.28,186.47a19.32,19.32,0,0,1,12.34-6.2Z"/><path class="cls-14" d="M186.92,91.8a13.08,13.08,0,0,1-5.06-9.87Z"/><path class="cls-15" d="M178.59,77.64c-3.23-.53-3.1-2.94-3-5.32C177.47,73.61,177.88,75.71,178.59,77.64Z"/><path class="cls-16" d="M135.54,190.46c1.27-2.29,3-3.58,5.73-2.5C139.45,189,137.84,190.49,135.54,190.46Z"/><path class="cls-17" d="M79.16,141.76l-1.77-3.43c-1.55-2-3.09-4.06-3.1-6.78-3.05-17-.12-32.31,12.74-44.85,1.75-1.72,3.75-3.19,5.63-4.78,2.7,1.22,2.61,4.1,3.69,6.24,3.34,6.67,10.59,10.65,16.88,9.06,8.24-2.1,13-8.32,12.58-16.35-.11-2-.89-4.12.33-6.09,13.2,2,22.94,9.48,31.15,19.36a21.28,21.28,0,0,1,4.55,8.9c6.9,16,2.66,35.21-10.73,48.63-2.12-.07-1.88-3.37-4.29-3-3.76-2.42-7.51-4.81-12.15-5.13-1.94.17-4.37-.69-4.88,2.38-4.21,5.59-2.21,11.25-.22,16.9C113.21,166.58,99.13,162.29,87,151c-1.49-1.39-3.14-2.61-4.71-3.9C80.21,145.93,79.74,143.81,79.16,141.76Z"/><path class="cls-4" d="M126.14,74.78c2.35,7.65,2.24,14.8-4.58,20.38-10.9,8.94-27.7,2.38-28.9-13.24.51-5.13,3-9.29,6.37-13,1.1-2.22,3.11-2.79,5.37-2.92C113.35,64.79,120.82,67.19,126.14,74.78Z"/><path class="cls-4" d="M134.82,142.09c5.38-.34,9.4,2.32,13,5.84,1.49,1.16,2.48,2.54,2.16,4.54a23,23,0,0,1-3.45,10c-.78,1.94-2.42,2.35-4.28,2.38-4.43.51-8.8.73-12.69-2-5.52-6.19-5.61-10-.41-18C130.66,143,132.38,141.81,134.82,142.09Z"/><path class="cls-18" d="M161.84,103q-2.26-4.46-4.55-8.9A10,10,0,0,1,161.84,103Z"/><path class="cls-19" d="M74.29,131.55q1.56,3.39,3.1,6.78C74.91,136.72,73.45,134.65,74.29,131.55Z"/><path class="cls-20" d="M79.16,141.76q1.56,2.69,3.13,5.37C79.48,146.34,78.82,144.34,79.16,141.76Z"/><path class="cls-21" d="M150,152.47l-2.16-4.54c2.77-.19,2.06,2.6,3.28,3.74Z"/><path class="cls-22" d="M104.4,66,99,68.87C99.72,65.91,101.67,65.23,104.4,66Z"/><path class="cls-23" d="M142.26,164.82l4.28-2.39C146,164.73,144.93,166.21,142.26,164.82Z"/><path class="cls-24" d="M134.82,142.09l-5.66,2.64C130.09,141.84,132.11,141.24,134.82,142.09Z"/></g><path class="cls-25" d="M65.24,395.35c-1.45-7,4.77-12.83,10.5-10a130,130,0,0,0,43.65,13.05,126.07,126.07,0,0,0,44.61-3c6.2-1.54,11.19,5.73,8.52,12.35-9.92,24.65-32.45,40.54-56.59,38.19C91.11,443.58,70.85,422.51,65.24,395.35Z"/><path class="cls-3" d="M67.07,308.83l102.85.78c-1.46-.86-3.51-2.14-5.83-3.83-4.77-3.47-18.82-13.71-25.06-32.23-6.62-19.64-.45-36.78,1.64-41.94a131.86,131.86,0,0,1-42,.13c2,4.44,8.85,20.88,2.87,40.45C94.65,294.74,75.79,305,74.65,305.52c-1.33.67-2.77,1.32-2.77,1.32C70,307.7,68.34,308.35,67.07,308.83Z"/></g></g></svg>