<svg xmlns="http://www.w3.org/2000/svg" xmlns:xlink="http://www.w3.org/1999/xlink" viewBox="0 0 1048.6 610.26"><defs><style>.cls-1{fill:#2b2b35;}.cls-2{fill:#4d4d4d;}.cls-3{fill:#1a1a1a;}.cls-4{fill:#666;}.cls-5{fill:#fabc34;}.cls-6{fill:#688cbc;}.cls-7{fill:url(#linear-gradient);}.cls-8{fill:#0b8896;}.cls-9{fill:#a1a900;}.cls-10{fill:#020811;}</style><linearGradient id="linear-gradient" x1="-750.1" y1="-26.39" x2="-197.65" y2="-26.39" gradientTransform="translate(903.11 110.92) rotate(-35.85)" gradientUnits="userSpaceOnUse"><stop offset="0" stop-color="#044090"/><stop offset="0.34" stop-color="#fabc34"/><stop offset="0.6" stop-color="#7a5494"/><stop offset="1" stop-color="#cb699d"/></linearGradient></defs><g id="Layer_2" data-name="Layer 2"><g id="Double_diamond" data-name="Double diamond"><path class="cls-1" d="M540.86,449c-4.21-5.42-11.7-15.4-21.76-15.65-3.24-.08-5.75.87-10.52-.17-2.68-.57-9.18-2-13.28-7.86a18.59,18.59,0,1,1,30.94-20.56c2.1,3.35,2,5.83,2.72,9.61,1.75,8.53,6.26,14.16,14,23.18,4.11,4.79,11.93,10.74,27.4,22.43,12.89,9.74,16.85,12.32,22.73,14.7,2.35,1,18.83,7.63,22,3.22,4.11-5.8-21-21.94-18.51-40.48,1.4-10.2,10.7-17.63,19.49-22.66,20.54-.66,64.3-.65,68.73,14.76,1.22,4.27-2.49,9.77-10,20.6-35.72,51.8-43.42,61.13-55.49,61.33-4.52.08-7.78-1.3-14.29-4.05C577.12,495.65,556.93,469.68,540.86,449Z"/><path class="cls-2" d="M874.31,222.93c-106.68-11-202.06,66.59-213,173.26s66.59,202.05,173.26,213,202-66.59,213-173.26S981,233.92,874.31,222.93ZM839.4,571.27a156.87,156.87,0,1,1,172.11-140A156.86,156.86,0,0,1,839.4,571.27Z"/><path class="cls-3" d="M869.39,242.62C779.54,233.37,698.75,303,689,398.08s55.11,179.72,145,189,170.64-60.35,180.43-155.46S959.25,251.87,869.39,242.62ZM841.61,572.24a156.87,156.87,0,1,1,172.11-140A156.87,156.87,0,0,1,841.61,572.24Z"/><path class="cls-4" d="M907.48,236.92a175.18,175.18,0,0,1,76.59,40.58c39.61,36.18,50.47,80.15,53.59,95.91A227,227,0,0,0,907.48,236.92Z"/><polygon class="cls-4" points="854.37 416.08 858.27 337.73 859.24 318.14 860.3 298.56 861.55 278.99 862.17 269.2 862.88 259.42 862.98 259.43 862.63 269.23 862.18 279.02 861.3 298.61 860.23 318.2 859.07 337.77 854.47 416.08 854.37 416.08"/><polygon class="cls-4" points="854.54 415.91 818.75 346.11 809.8 328.66 800.92 311.17 792.21 293.6 787.86 284.81 783.59 275.99 783.67 275.94 788.27 284.61 792.78 293.31 801.81 310.72 810.68 328.21 819.46 345.75 854.63 415.87 854.54 415.91"/><polygon class="cls-4" points="855.01 416.52 789.11 373.97 772.63 363.33 756.21 352.63 739.88 341.76 731.71 336.33 723.6 330.82 723.65 330.74 731.96 335.95 740.23 341.23 756.75 351.79 773.17 362.5 789.55 373.3 855.07 416.44 855.01 416.52"/><polygon class="cls-4" points="855.04 415.73 776.69 411.83 757.1 410.86 737.52 409.8 717.95 408.56 708.16 407.93 698.38 407.22 698.38 407.12 708.19 407.48 717.98 407.92 737.57 408.8 757.15 409.87 776.73 411.03 855.04 415.63 855.04 415.73"/><polygon class="cls-4" points="854.2 415.23 784.39 451.02 766.94 459.97 749.46 468.85 731.88 477.56 723.1 481.91 714.27 486.18 714.23 486.1 722.89 481.5 731.59 476.99 749 467.95 766.5 459.09 784.03 450.31 854.15 415.14 854.2 415.23"/><polygon class="cls-4" points="854.8 414.76 812.25 480.66 801.62 497.13 790.91 513.56 780.04 529.89 774.61 538.05 769.11 546.17 769.02 546.12 774.23 537.81 779.51 529.54 790.07 513.02 800.79 496.59 811.58 480.22 854.72 414.7 854.8 414.76"/><polygon class="cls-4" points="853.3 415.55 849.39 493.89 848.42 513.48 847.36 533.06 846.12 552.63 845.5 562.42 844.79 572.2 844.69 572.2 845.04 562.4 845.48 552.6 846.37 533.01 847.43 513.43 848.59 493.85 853.2 415.54 853.3 415.55"/><polygon class="cls-4" points="854.89 414.68 890.68 484.48 899.64 501.93 908.51 519.42 917.22 536.99 921.57 545.78 925.85 554.61 925.76 554.65 921.16 545.99 916.65 537.28 907.62 519.87 898.75 502.38 889.97 484.85 854.8 414.73 854.89 414.68"/><polygon class="cls-4" points="852.52 413.87 918.42 456.43 934.89 467.06 951.32 477.77 967.65 488.63 975.82 494.07 983.93 499.57 983.88 499.66 975.57 494.45 967.3 489.17 950.78 478.61 934.36 467.89 917.98 457.1 852.47 413.96 852.52 413.87"/><polygon class="cls-4" points="855.4 413.67 933.75 417.58 953.34 418.55 972.92 419.61 992.49 420.85 1002.28 421.48 1012.06 422.19 1012.06 422.29 1002.25 421.93 992.46 421.49 972.87 420.61 953.29 419.54 933.71 418.38 855.4 413.77 855.4 413.67"/><polygon class="cls-4" points="852.25 415.69 922.05 379.9 939.5 370.95 956.99 362.07 974.56 353.36 983.34 349.01 992.17 344.73 992.22 344.82 983.55 349.42 974.85 353.93 957.44 362.96 939.95 371.83 922.41 380.61 852.29 415.78 852.25 415.69"/><polygon class="cls-4" points="853.73 414.45 896.29 348.56 906.92 332.08 917.63 315.65 928.5 299.32 933.93 291.16 939.43 283.04 939.52 283.1 934.31 291.41 929.03 299.67 918.47 316.19 907.75 332.62 896.96 348.99 853.82 414.51 853.73 414.45"/><path class="cls-2" d="M195.54,200.36C88.31,199.6.77,285.91,0,393.15S85.56,587.93,192.79,588.69,387.57,503.13,388.33,395.9,302.78,201.12,195.54,200.36ZM194,550.43A156.86,156.86,0,1,1,352,394.69,156.87,156.87,0,0,1,194,550.43Z"/><path class="cls-3" d="M192.53,220.42c-90.33-.64-164.1,76.35-164.78,172S99.75,566,190.08,566.67s164.1-76.35,164.78-172S282.86,221.07,192.53,220.42Zm3.79,330.77a156.86,156.86,0,1,1,158-155.75A156.85,156.85,0,0,1,196.32,551.19Z"/><path class="cls-4" d="M229.9,211.12A175.26,175.26,0,0,1,310,244.21c42.88,32.24,57.88,75,62.49,90.36A227,227,0,0,0,229.9,211.12Z"/><polygon class="cls-4" points="194.12 394.52 190.53 316.16 189.63 296.57 188.82 276.98 188.19 257.38 187.88 247.58 187.65 237.77 187.75 237.77 188.33 247.56 188.83 257.35 189.82 276.94 190.62 296.53 191.34 316.13 194.22 394.52 194.12 394.52"/><polygon class="cls-4" points="194.28 394.35 151.99 328.27 141.41 311.76 130.91 295.2 120.57 278.54 115.4 270.2 110.3 261.83 110.38 261.77 115.78 269.96 121.11 278.19 131.76 294.66 142.25 311.23 152.67 327.85 194.36 394.29 194.28 394.35"/><polygon class="cls-4" points="194.8 394.91 125.15 358.83 107.73 349.82 90.35 340.73 73.06 331.47 64.42 326.84 55.81 322.13 55.86 322.05 64.63 326.44 73.36 330.9 90.82 339.84 108.19 348.94 125.52 358.12 194.85 394.82 194.8 394.91"/><polygon class="cls-4" points="194.75 394.12 116.39 397.7 96.8 398.61 77.2 399.42 57.6 400.05 47.8 400.36 38 400.59 37.99 400.49 47.78 399.91 57.58 399.41 77.16 398.42 96.76 397.62 116.36 396.9 194.75 394.02 194.75 394.12"/><polygon class="cls-4" points="193.87 393.7 127.79 435.98 111.28 446.56 94.72 457.06 78.06 467.41 69.72 472.58 61.35 477.68 61.29 477.59 69.48 472.19 77.71 466.87 94.18 456.22 110.75 445.72 127.36 435.31 193.81 393.61 193.87 393.7"/><polygon class="cls-4" points="194.43 393.17 158.35 462.83 149.34 480.25 140.25 497.62 130.99 514.91 126.36 523.55 121.65 532.16 121.56 532.11 125.95 523.34 130.42 514.61 139.36 497.16 148.46 479.79 157.64 462.46 194.34 393.13 194.43 393.17"/><polygon class="cls-4" points="193 394.1 196.59 472.46 197.49 492.05 198.3 511.65 198.93 531.25 199.24 541.05 199.47 550.85 199.37 550.86 198.79 541.07 198.29 531.27 197.3 511.69 196.5 492.09 195.79 472.5 192.9 394.1 193 394.1"/><polygon class="cls-4" points="194.51 393.09 236.79 459.16 247.37 475.67 257.87 492.24 268.22 508.9 273.39 517.23 278.49 525.61 278.4 525.66 273 517.47 267.68 509.24 257.03 492.77 246.53 476.2 236.12 459.59 194.42 393.14 194.51 393.09"/><polygon class="cls-4" points="192.07 392.51 261.73 428.59 279.14 437.6 296.52 446.69 313.81 455.95 322.45 460.58 331.06 465.29 331.01 465.37 322.24 460.98 313.51 456.52 296.05 447.58 278.68 438.48 261.35 429.3 192.02 392.6 192.07 392.51"/><polygon class="cls-4" points="194.92 392.04 273.29 388.45 292.88 387.55 312.47 386.74 332.07 386.11 341.87 385.79 351.68 385.57 351.68 385.67 341.89 386.25 332.1 386.75 312.51 387.73 292.92 388.54 273.32 389.25 194.93 392.13 194.92 392.04"/><polygon class="cls-4" points="191.97 394.34 258.04 352.06 274.56 341.48 291.12 330.98 307.78 320.63 316.11 315.46 324.49 310.37 324.54 310.45 316.36 315.85 308.12 321.18 291.65 331.82 275.09 342.32 258.47 352.74 192.02 394.43 191.97 394.34"/><polygon class="cls-4" points="193.33 392.97 229.41 323.31 238.42 305.9 247.52 288.52 256.77 271.23 261.4 262.59 266.11 253.98 266.2 254.03 261.81 262.8 257.34 271.53 248.4 288.99 239.3 306.36 230.12 323.69 193.42 393.02 193.33 392.97"/><circle class="cls-5" cx="193.75" cy="393.59" r="51.32"/><circle class="cls-5" cx="856.31" cy="416.14" r="51.32"/><path class="cls-6" d="M546,338.08a85.34,85.34,0,1,0,63,103A85.34,85.34,0,0,0,546,338.08Zm-3.86,16A60.07,60.07,0,0,1,577.92,372c15.79,16.56,16.31,36.54,16.32,40.91l-67.51,5.27Zm-47.18,4A71.31,71.31,0,0,1,534.25,353q-7.39,31.69-14.8,63.4L464,384.52A71.27,71.27,0,0,1,495,358.11Zm-41.56,70.72a71.23,71.23,0,0,1,7.8-38.81l55.24,34.45L468.43,466.7A71.28,71.28,0,0,1,453.44,428.83Zm59.49,63.55c-20.8-2.54-33.93-14.81-38-19l44.32-43.22,24.45,58.27A63.83,63.83,0,0,1,512.93,492.38Zm35.7-5q-10.2-31.35-20.39-62.71l65.7-4.18a69.61,69.61,0,0,1-45.31,66.89Z"/><path class="cls-7" d="M859.62,405.78,709.68,180.72a7.26,7.26,0,0,0-3-2.61l-21.12-9.78a7.34,7.34,0,0,0-3-.69l-275.08-1.95-52.08-.37a7.41,7.41,0,0,0-5.94,2.93L183.51,386.86A7.39,7.39,0,0,0,186,397.91l4.55,2.31a7.38,7.38,0,0,0,9.12-2L355.35,203.4a7.39,7.39,0,0,1,12.38,1.31L476.49,421.85a7.55,7.55,0,0,0,1.19,1.72c5.94,6.41,14.63,13.45,25.95,15,23.78,3.33,49.35-18.76,110.11-108.55C634,300.11,659.38,260.86,687,213.34a7.39,7.39,0,0,1,12.4-.58l148,207.38a7.39,7.39,0,0,0,13.4-4.24l0-6A7.38,7.38,0,0,0,859.62,405.78ZM655.08,200.69c-14,24.24-32.33,55.45-54.46,91.33-57.74,93.6-72.36,107.53-87.78,106.49-16.58-1.13-26.93-19.11-66.25-96.42-19-37.38-36.38-72.09-52-103.68a10.32,10.32,0,0,1,9.32-14.89l11,.08,215.24,1.52,16.08.12A10.31,10.31,0,0,1,655.08,200.69Z"/><path class="cls-8" d="M376.7,82.49c-50.61,12.26-88.31,68.9-76.53,93.18,14.76,30.43,107.68,10.86,147.28-1.19,27.83-8.47,49.28-15,51.52-28.64C503.26,119.74,437.2,67.84,376.7,82.49Z"/><path class="cls-9" d="M676.3,203.49c18.56.3,35.37-31.93,58.73-76.71.36-.68,6.45-12.38,6.45-12.38-13-3.87-23.89-23.37-36.05-17.66-10.08,4.73,8.61,32.4-5.6,55.24-13.19,21.18-43.49,20.22-44,33.54C655.58,193.53,666.2,203.33,676.3,203.49Z"/><path class="cls-8" d="M638,53.1c9.36-.4,8.06-24.28,24.78-33.29,4-2.19,12.37-2.13,29-2,22.78.15,30.26,3.22,33.44,4.7,3,1.4,11.83,5.51,15.54,11.27,15.16,23.55-33.9,108-89.16,111.08-29.27,1.66-40.89-20.68-65.51-11.76-25.67,9.29-43.79,44.21-36.1,55.52a11.91,11.91,0,0,0,11.13,4.55c15.33-2.35,12.78-37.76,31.55-44.41,4.57-1.62,11.57.5,25.39,4.79,27.72,8.62,31.81,15,42.29,15.92,25.63,2.35,54.69-24.61,62.71-33,13.59-14.26,20-27.25,28.44-44.58C763.39,67.57,771.7,50,765.32,31.69a42.48,42.48,0,0,0-14.6-20c-10-7.27-19-6.09-41-7.13-40.39-1.91-41.58-7.39-53.53-2.61-17.55,7-33.12,26.12-29.29,40C628.38,47.2,633.16,53.31,638,53.1Z"/><path class="cls-9" d="M724.65,102.81c9.65,1,12.57,14.18,15.52,13.5s5.25-15.07-2.06-24.56A22.67,22.67,0,0,0,729.24,85c-1.56-.67-10.37-4.44-17.85-.13-9.42,5.43-10.78,20.28-7.47,22.43,2.47,1.6,7.14-4.12,18.5-4.5A15.65,15.65,0,0,1,724.65,102.81Z"/><path class="cls-10" d="M476,381c4.26,5.38,11.83,15.3,21.89,15.46,3.24.06,5.75-.92,10.53.08,2.67.55,9.19,1.91,13.33,7.75A18.59,18.59,0,1,1,491,425.07c-2.13-3.33-2-5.81-2.8-9.58-1.82-8.52-6.38-14.11-14.19-23.06-4.15-4.76-12-10.64-27.58-22.2-13-9.64-16.95-12.18-22.86-14.52-2.35-.92-18.89-7.46-22-3-4.06,5.82,21.22,21.75,18.84,40.31-1.3,10.22-10.54,17.72-19.29,22.83-20.53.83-64.29,1.2-68.85-14.18-1.26-4.26,2.41-9.79,9.78-20.68,35.28-52.1,42.9-61.49,55-61.8,4.52-.11,7.79,1.24,14.32,3.93C439.35,334.65,459.77,360.44,476,381Z"/></g></g></svg>