<?xml version="1.0" encoding="UTF-8"?>
<svg width="344px" height="182px" viewBox="0 0 344 182" version="1.1" xmlns="http://www.w3.org/2000/svg" xmlns:xlink="http://www.w3.org/1999/xlink">
    <title>Group 14</title>
    <defs>
        <polygon id="path-1" points="0 0.579970142 343.858 0.579970142 343.858 151 0 151"></polygon>
    </defs>
    <g id="Page-1" stroke="none" stroke-width="1" fill="none" fill-rule="evenodd">
        <g id="Post-2_Build-a-prototype" transform="translate(-368.000000, -602.000000)">
            <g id="Group-14" transform="translate(368.000000, 602.000000)">
                <path d="M41.6367,108.7794 C41.6367,108.7794 66.2837,151.1044 157.4157,166.6334 C248.5477,182.1634 287.7817,158.9804 287.7817,158.9804 L41.6367,108.7794 Z" id="Fill-1" fill="#FFFFFF"></path>
                <path d="M41.2698582,108.5167 L100.958,118.6287 L131.749,123.8987 L147.307,126.6117 C152.508,127.5247 157.729,128.4627 162.965,129.4317 C183.896,133.2237 205.044,137.6297 225.984,142.1037 C236.46,144.3407 246.907,146.6037 257.31,148.9387 L272.867,152.5637 L288.326,156.3137 L295.502,158.0547 L289.166,161.3247 L288.608,161.6127 L288.103,161.8477 L287.095,162.3137 L285.096,163.1387 C283.762,163.6727 282.418,164.1207 281.084,164.6157 L277.04,165.8797 C275.688,166.2797 274.322,166.6087 272.966,166.9757 C271.612,167.3527 270.247,167.6667 268.879,167.9607 L264.783,168.8727 L256.542,170.3267 L248.271,171.4667 C245.5,171.7077 242.741,172.0257 239.978,172.3087 C237.213,172.5777 234.437,172.6687 231.668,172.8567 C230.283,172.9317 228.9,173.0737 227.514,173.1167 L223.354,173.2247 C220.582,173.3007 217.808,173.4537 215.034,173.4657 L206.709,173.4727 C205.321,173.4697 203.93,173.5097 202.542,173.4727 L198.38,173.3537 L190.043,173.1197 C184.493,172.8497 178.945,172.4387 173.382,172.0827 C167.851,171.5147 162.32,170.8647 156.781,170.2297 C151.274,169.3297 145.768,168.3647 140.272,167.3407 C137.552,166.6877 134.831,166.0317 132.119,165.3387 C129.411,164.6297 126.675,164.0337 124.001,163.1927 L115.988,160.6397 L111.991,159.3387 C110.669,158.8717 109.369,158.3357 108.057,157.8367 C105.437,156.8307 102.83,155.7887 100.226,154.7497 C97.645,153.6487 95.119,152.4017 92.567,151.2357 L88.751,149.4557 L85.038,147.4527 L81.349,145.4127 L79.506,144.3937 C78.895,144.0497 78.311,143.6507 77.712,143.2827 C75.338,141.7697 72.943,140.3017 70.6,138.7547 L63.803,133.7607 L60.552,131.0717 C59.482,130.1597 58.357,129.3237 57.351,128.3347 C55.328,126.3737 53.218,124.5327 51.34,122.4317 C49.377,120.4287 47.607,118.2367 45.859,116.0537 C45.033,114.9137 44.171,113.8167 43.415,112.6297 L42.279,110.8607 L41.754,109.9447 L41.476,109.4517 C41.304,109.1627 41.262,108.7447 41.2698582,108.5167 L41.2698582,108.5167 Z M42.002,109.0417 C42.194,109.1067 42.335,108.9807 42.346,108.985555 C42.411,109.0507 42.551,109.2317 42.649,109.3487 L43.293,110.1397 L44.647,111.6777 C45.542,112.7037 46.551,113.6417 47.475,114.6357 C48.444,115.5947 49.464,116.5067 50.451,117.4417 C51.424,118.3877 52.529,119.2087 53.542,120.1127 C55.56,121.9307 57.81,123.4927 59.947,125.1577 C62.148,126.7477 64.415,128.2547 66.634,129.8037 L73.587,134.0357 C75.944,135.3757 78.35,136.6387 80.722,137.9427 C81.32,138.2587 81.901,138.6047 82.514,138.8967 L84.357,139.7627 L88.04,141.4917 L91.701,143.2507 L95.462,144.8077 C97.977,145.8277 100.455,146.9237 102.992,147.8797 C105.559,148.7727 108.123,149.6627 110.673,150.5867 C111.953,151.0357 113.218,151.5217 114.509,151.9407 L118.418,153.0977 L126.217,155.4597 L142.023,159.5287 C147.359,160.6357 152.685,161.8007 158.009,163.0307 C163.385,164.0377 168.773,165.0227 174.157,166.0927 C179.57,166.9087 184.988,167.7997 190.427,168.5477 C201.319,169.7667 212.299,170.7647 223.282,170.4547 L227.4,170.3877 C228.772,170.3527 230.14,170.2397 231.509,170.1557 C234.244,169.9347 236.988,169.8117 239.714,169.5127 C242.436,169.1847 245.162,168.8897 247.876,168.5207 L255.964,167.0997 C258.644,166.5567 261.294,165.8817 263.949,165.2577 L267.879,164.1377 L269.842,163.5797 C270.491,163.3747 271.129,163.1427 271.772,162.9257 C273.052,162.4777 274.346,162.0647 275.611,161.5877 L279.376,160.1037 C280.593,159.5467 281.836,159.0267 283.025,158.4427 L284.793,157.5527 L285.632,157.0837 L286.05,156.8507 L286.397,156.6377 L287.238,161.6477 L271.929,159.1217 L256.717,156.4717 C246.608,154.6237 236.542,152.7037 226.507,150.7567 C206.422,146.8637 186.546,142.9027 166.453,138.3287 C161.434,137.2047 156.398,136.0517 151.343,134.8727 L136.133,131.3107 L105.388,124.0307 L42.002,109.0417 Z" id="Fill-3" fill="#000000"></path>
                <path d="M272.2896,83.3009 C272.2896,83.3009 325.9376,114.8429 339.5256,145.7819 C342.9196,153.5099 339.7016,162.5509 332.2046,166.4289 C316.4586,174.5739 278.5346,183.8719 191.1746,168.9709 C155.6116,162.9049 121.2556,151.1339 89.4266,134.1499 C47.2086,111.6219 -5.4694,78.5789 5.7986,58.9509 C5.7986,58.9509 15.5106,32.0819 100.4706,35.4719 C185.4316,38.8609 272.2896,83.3009 272.2896,83.3009" id="Fill-5" fill="#FFFFFF"></path>
                <g id="Group-9" transform="translate(0.000000, 29.786000)">
                    <mask id="mask-2" fill="white">
                        <use xlink:href="#path-1"></use>
                    </mask>
                    <g id="Clip-8"></g>
                    <path d="M272.0732,53.9094 C251.1322,43.6314 229.0552,35.5984 206.7062,29.0174 C203.9212,28.1604 201.0892,27.4554 198.2862,26.6674 C195.4712,25.9184 192.6822,25.0854 189.8512,24.4064 L181.3712,22.3464 L177.1362,21.3164 L172.8692,20.4244 C167.1792,19.2524 161.5272,17.9474 155.8102,16.9924 L147.2652,15.4354 L138.6902,14.1364 L134.4062,13.4884 C132.9772,13.2774 131.5532,13.0294 130.1152,12.9094 C127.2442,12.6214 124.3782,12.3084 121.5152,11.9724 C115.7962,11.1804 110.0422,11.0234 104.3052,10.6314 C102.8702,10.5504 101.4382,10.4414 100.0002,10.3824 L95.6732,10.3324 L87.0202,10.2304 C84.1362,10.1874 81.2702,10.3364 78.3942,10.3794 C75.5252,10.4804 72.6352,10.4264 69.7892,10.7014 L61.2242,11.3224 C58.3882,11.6234 55.5732,12.0274 52.7462,12.3724 C47.1272,13.1804 41.5532,14.1944 36.1532,15.6604 C35.4792,15.8434 34.7792,15.9714 34.1252,16.1974 L32.1502,16.8494 L28.2022,18.1574 C25.6962,19.2384 23.0982,20.1974 20.7832,21.5334 C20.1942,21.8514 19.5782,22.1414 19.0092,22.4804 L17.3542,23.5534 C16.8142,23.9194 16.2172,24.2384 15.7212,24.6394 L14.2192,25.8294 C13.6892,26.2094 13.2552,26.6424 12.8192,27.0734 C12.3922,27.5064 11.8892,27.9134 11.5522,28.3714 C11.1952,28.8164 10.7502,29.2604 10.4932,29.6954 C10.3582,29.9054 10.1602,30.1464 10.0672,30.3274 L9.9152,30.5964 C9.8982,30.6254 9.8412,30.7214 9.8562,30.6934 C9.8652,30.6764 9.8692,30.6564 9.8692,30.6374 L9.5522,31.3204 C8.7232,32.7364 8.4012,34.2364 8.5732,36.0164 C8.7302,37.7854 9.4482,39.7544 10.4442,41.6854 C12.4912,45.5764 15.6122,49.2854 18.9522,52.7714 C22.3282,56.2584 26.0322,59.5384 29.8722,62.6824 C33.7172,65.8254 37.6802,68.8724 41.7402,71.8064 C58.0062,83.5344 75.3182,94.0974 92.9622,103.9344 C110.6092,113.6894 129.3022,121.6134 148.5972,127.5774 C158.2582,130.5134 168.0452,133.0474 177.9562,134.9524 C187.8352,136.9764 197.8952,138.1114 207.9182,139.4294 C227.9952,141.7684 248.1542,143.0594 268.1842,143.1544 C270.6912,143.2184 273.1852,143.0574 275.6842,143.0274 L279.4322,142.9754 L283.1662,142.7954 C288.1502,142.6004 293.1052,142.1624 298.0252,141.6064 C300.4762,141.2894 302.9522,141.0694 305.3682,140.6134 L309.0152,140.0174 C310.2242,139.7984 311.4152,139.5234 312.6172,139.2804 C315.0392,138.8384 317.3582,138.1224 319.7342,137.5564 L323.1982,136.4764 C324.3652,136.1354 325.4542,135.6524 326.5892,135.2504 C327.7342,134.8594 328.7792,134.3144 329.8752,133.8474 C330.1382,133.7254 330.4392,133.6044 330.6712,133.4834 L331.3242,133.1264 C331.7802,132.9164 332.1562,132.5864 332.5822,132.3264 C334.1772,131.1424 335.5222,129.5934 336.4712,127.7944 C337.3712,125.9774 337.8982,123.9394 337.893235,121.8754 C337.8602,121.3624 337.8872,120.8404 337.7902,120.3304 L337.6892,119.5574 L337.5102,118.7994 C337.4192,118.2824 337.2072,117.8014 337.0572,117.2974 C336.8772,116.7834 336.5982,116.2064 336.3742,115.6634 C334.4682,111.2494 331.8922,107.0194 328.9952,102.9964 C326.0892,98.9714 322.8452,95.1434 319.4322,91.4614 C312.5472,84.1404 304.9822,77.3894 297.0222,71.1524 C289.0602,64.9274 280.7012,59.1274 272.0732,53.9094 M272.5062,53.1204 C281.2402,58.3834 289.6292,64.0644 297.8802,70.0144 C306.1002,75.9914 314.1532,82.2544 321.6332,89.2574 C325.3852,92.7454 329.0002,96.4134 332.3392,100.3794 C335.6732,104.3454 338.7562,108.6014 341.2432,113.3314 C341.5502,113.9374 341.8692,114.4824 342.1652,115.1424 C342.4462,115.8304 342.7742,116.5034 342.9652,117.2264 L343.2892,118.3014 L343.5162,119.4014 C343.6922,120.1334 343.7292,120.8854 343.8142,121.6334 C344.0242,124.6374 343.4732,127.6904 342.2992,130.4934 C341.0672,133.2644 339.2192,135.8244 336.8102,137.7564 C336.1872,138.2044 335.5992,138.7154 334.9262,139.0904 L333.9352,139.6874 C333.6132,139.8714 333.3282,140.0004 333.0232,140.1584 C331.8162,140.7464 330.6282,141.4184 329.3922,141.9074 C328.1622,142.4144 326.9472,143.0064 325.6982,143.4374 L321.9572,144.7904 C319.4392,145.5424 316.9142,146.3514 314.3602,146.8984 C313.0852,147.1934 311.8122,147.5174 310.5342,147.7854 L306.6882,148.4894 C304.1252,149.0024 301.5492,149.2684 298.9772,149.6334 L297.0462,149.8864 L295.1132,150.0514 L291.2472,150.3714 C288.6692,150.6294 286.0952,150.6774 283.5192,150.8054 L279.6572,150.9684 L275.8012,151.0004 L271.9442,150.9904 L270.0162,150.9834 L268.0942,150.9144 C247.5632,150.3714 227.2752,147.6614 207.2302,144.1344 C167.0252,137.5864 127.6362,125.6974 91.0972,107.5044 C81.9632,102.9914 72.9632,98.2704 64.0372,93.3394 C55.1332,88.3814 46.3022,83.2384 37.7582,77.5544 C29.2142,71.8674 20.8722,65.7714 13.2892,58.4044 C9.5282,54.6844 5.9202,50.6564 3.0992,45.6274 C1.7332,43.0904 0.5322,40.2624 0.1312,36.9744 C-0.0698,35.3434 -0.0518,33.6094 0.2682,31.8924 C0.5832,30.1784 1.2062,28.5034 2.0442,27.0104 L1.7272,27.6934 L1.9582,27.1344 C2.0432,26.9374 2.0842,26.8784 2.1492,26.7434 L2.5152,26.0464 C2.7632,25.5804 3.0172,25.2404 3.2732,24.8344 C3.7732,24.0134 4.3442,23.3924 4.8932,22.6924 C5.4332,21.9754 6.0512,21.4284 6.6402,20.8124 C7.2332,20.2034 7.8312,19.6014 8.4762,19.1034 L10.3802,17.5334 C11.0162,17.0074 11.7012,16.6074 12.3612,16.1404 L14.3642,14.7944 C15.0432,14.3754 15.7432,14.0224 16.4332,13.6354 C19.1762,12.0104 22.0542,10.8764 24.9022,9.6094 C26.3462,9.0804 27.8002,8.5904 29.2512,8.0814 L31.4292,7.3264 C32.1552,7.0654 32.8952,6.9124 33.6282,6.7014 L38.0362,5.5184 C38.7732,5.3344 39.5052,5.0984 40.2452,4.9574 L42.4652,4.5144 L46.9072,3.6334 L49.1302,3.1964 L51.3612,2.9054 C54.3362,2.5324 57.3112,2.1014 60.2872,1.7804 L69.2152,1.1104 C72.1942,0.8204 75.1602,0.8654 78.1332,0.7544 L82.5902,0.6394 C84.0762,0.6014 85.5632,0.5414 87.0422,0.6144 L95.9272,0.8554 L100.3672,0.9774 C101.8492,1.0624 103.3312,1.1954 104.8132,1.3024 C110.7342,1.7964 116.6832,2.0624 122.5442,2.9634 C125.4862,3.3344 128.4242,3.7304 131.3572,4.1484 C132.8292,4.3254 134.2782,4.6284 135.7342,4.8944 L140.0962,5.7094 C163.3772,10.0174 185.9792,17.0094 207.9642,25.2404 C229.9272,33.5964 251.4712,42.7394 272.5062,53.1204" id="Fill-7" fill="#000000" mask="url(#mask-2)"></path>
                </g>
                <path d="M166.2012,113.7091 C166.2012,113.7091 88.7882,89.5601 91.7012,46.3841 C91.7012,46.3841 125.3482,-8.4999 202.9192,3.2081 C202.9192,3.2081 270.9752,25.8951 274.6352,102.0011 C274.6352,102.0011 267.0602,137.8581 166.2012,113.7091" id="Fill-10" fill="#FFFFFF"></path>
                <path d="M166.3203,113.2755 C175.7213,115.4615 185.2653,117.1985 194.8693,118.2015 C204.4633,119.2475 214.1273,119.5675 223.6423,119.1345 C226.0243,119.0825 228.3833,118.8315 230.7433,118.6725 L234.2563,118.2705 C235.4273,118.1465 236.5873,117.9925 237.7423,117.8095 C242.3683,117.1475 246.9053,116.1595 251.2083,114.7945 C255.4933,113.4095 259.5723,111.6095 263.0023,109.2125 C264.7153,108.0185 266.2503,106.6595 267.4753,105.1675 C268.0763,104.4215 268.6553,103.6655 269.0933,102.8865 C269.3113,102.5025 269.5183,102.1145 269.6763,101.7455 C269.7733,101.5535 269.8153,101.3895 269.8923,101.2135 C269.9293,101.1125 270.0173,100.7895 269.9623,101.0135 L269.8643,102.2295 C269.2373,91.8625 267.4063,81.6395 264.2993,71.8135 C261.0673,62.0315 256.4193,52.7155 250.4123,44.2785 C247.3893,40.0755 244.0563,36.0865 240.4763,32.3095 C236.8773,28.5505 233.0253,25.0115 228.9593,21.7105 C224.8793,18.4285 220.6173,15.3325 216.1343,12.5675 C213.9033,11.1665 211.6103,9.8655 209.2823,8.6335 C206.9723,7.4185 204.5353,6.2425 202.2183,5.3085 L202.5883,5.3975 C200.0393,4.9825 197.4903,4.5095 194.9243,4.1725 L191.0643,3.7475 C189.7773,3.5985 188.4883,3.4535 187.1953,3.3995 C184.6093,3.2765 182.0203,3.1005 179.4293,3.1565 C178.1333,3.1655 176.8363,3.1365 175.5403,3.1765 L171.6603,3.4195 L169.7213,3.5485 L167.7903,3.7695 L163.9283,4.2155 C162.6503,4.4225 161.3713,4.6365 160.0963,4.8675 C158.8163,5.0675 157.5523,5.3545 156.2913,5.6515 C155.0313,5.9475 153.7613,6.2095 152.5183,6.5695 L148.7893,7.6495 C147.5483,8.0125 146.3423,8.4915 145.1193,8.9055 L143.2913,9.5485 L141.5003,10.2915 C131.9033,14.1395 123.0993,19.7095 115.2713,26.2405 C111.3743,29.5345 107.6673,33.0305 104.2743,36.7885 C102.5823,38.6695 100.9343,40.5805 99.3813,42.5515 C98.6023,43.5345 97.8423,44.5275 97.1193,45.5345 C96.7573,46.0375 96.4033,46.5435 96.0623,47.0465 C95.7243,47.5305 95.3613,48.0865 95.1173,48.4785 L95.6993,46.6545 C95.3183,54.5685 97.8793,62.3715 102.4633,69.3055 C104.7453,72.7775 107.4463,76.0475 110.3613,79.1915 C113.2913,82.3285 116.5563,85.2035 119.9083,88.0065 C126.6623,93.5705 134.1153,98.4325 141.9003,102.6945 C149.6983,106.9155 157.9133,110.5225 166.3203,113.2755 M166.0813,114.1435 C157.5523,111.3125 149.2703,108.0435 141.0233,104.4915 C136.8883,102.7475 132.8503,100.7755 128.8163,98.7525 C124.7943,96.7065 120.8253,94.5095 116.9883,92.0465 C109.3143,87.1655 101.9933,81.2815 96.2623,73.6295 C93.3903,69.8295 91.0733,65.4725 89.5383,60.7925 C88.0033,56.1125 87.3573,51.0715 87.7023,46.1145 L87.7753,45.0825 L88.2843,44.2905 C88.7443,43.5755 89.1153,43.0455 89.5353,42.4605 C89.9443,41.8875 90.3693,41.3385 90.7923,40.7925 C91.6413,39.7005 92.5163,38.6425 93.4063,37.6025 C95.2093,35.5445 97.0803,33.5635 99.0443,31.6835 C102.9833,27.9415 107.1833,24.5045 111.6363,21.4545 C116.0763,18.3885 120.7323,15.6695 125.5393,13.3005 C126.7513,12.7255 127.9313,12.0945 129.1603,11.5645 L132.8343,9.9575 C135.3303,8.9985 137.7993,7.9975 140.3343,7.1695 C145.3783,5.4655 150.4993,4.0045 155.7043,2.9615 C158.2853,2.3275 160.9263,2.0255 163.5303,1.5165 L167.4763,1.0065 L169.4503,0.7545 L171.4323,0.5945 L175.3993,0.2835 C176.7223,0.1905 178.0483,0.1655 179.3743,0.1025 C182.0273,-0.0585 184.6783,0.0135 187.3353,0.0345 C188.6653,0.0065 189.9903,0.0725 191.3163,0.1405 L195.2993,0.3285 C197.9483,0.5235 200.5923,0.8025 203.2493,1.0195 L203.3653,1.0295 L203.6193,1.1085 C206.3843,1.9745 208.8903,2.9705 211.4533,4.0555 C213.9913,5.1445 216.4963,6.3085 218.9463,7.5825 C223.8513,10.1165 228.6433,12.9195 233.1593,16.1465 L236.5193,18.6075 L239.7993,21.1855 L242.9613,23.9145 C244.0023,24.8385 245.0033,25.8105 246.0263,26.7585 C250.0563,30.6185 253.7803,34.8105 257.2083,39.2465 C260.6403,43.6825 263.6523,48.4445 266.3723,53.3655 C269.0923,58.2965 271.2613,63.5055 273.2263,68.7805 C276.9233,79.4215 278.9403,90.6045 279.4043,101.7705 L279.4333,102.4625 L279.3073,102.9875 C279.1113,103.8015 278.9973,104.0495 278.8363,104.5195 C278.6773,104.9015 278.5263,105.3135 278.3513,105.6645 C278.0143,106.3995 277.6403,107.0765 277.2473,107.7355 C276.4623,109.0495 275.5543,110.2145 274.6023,111.3235 C272.6733,113.5105 270.4723,115.3055 268.1703,116.8105 C263.5593,119.8355 258.5573,121.7445 253.5533,123.0385 C248.5373,124.3315 243.4723,124.8905 238.4673,125.1655 C235.9613,125.3665 233.4643,125.2805 230.9753,125.2905 C228.4933,125.1715 226.0113,125.1535 223.5523,124.9135 C213.6973,124.1435 204.0503,122.4565 194.5083,120.5455 C184.9703,118.5815 175.5343,116.3935 166.0813,114.1435" id="Fill-12" fill="#000000"></path>
            </g>
        </g>
    </g>
</svg>