<svg xmlns="http://www.w3.org/2000/svg" viewBox="0 0 41.75 39.46"><defs><style>.cls-1{fill:#7568ae;}.cls-2{fill:#b09dcb;}.cls-3{fill:#9edbea;}.cls-4{fill:#fff;}.cls-5{fill:#746ab0;}.cls-6{fill:#e52a7e;}.cls-7{fill:#231f20;}.cls-8{fill:#e9609d;}.cls-9{fill:#ca286e;}</style></defs><g id="Layer_2" data-name="Layer 2"><g id="StickerBackground"><g id="SeaStar2"><path class="cls-1" d="M22.11,0c3.74,0,1.93,9.76,5,13.2,3.32,3.71,14.62,1.08,14.62,4.31C41.75,21.87,30,20.61,29,24c-.83,2.6,7.26,13,3.59,15.27-3.29,2-8.33-9.78-12.4-9.78-3.78,0-9.22,10.3-12.63,8.05s5.18-9.13,3.21-15.13S-.73,17.71,0,14.1c.71-3.3,11-.09,14.39-2.2C18.87,9.13,18.81,0,22.11,0Z"/><path class="cls-2" d="M22.11,0c2.65,0-.18,12.38,2.77,15.43s16.87-.24,16.87,2.09c0,3.51-14.27,1.31-15.37,5.42-.86,3.23,9.12,14.86,6.17,16.29-2.11,1-9-12-12.29-12.25C15.74,26.67,10.09,39.75,7.52,37.5s7.17-10.92,5.8-15.26C11.63,16.87-.64,17,0,14.09c.63-2.65,12.76,2.18,15.77.93S19.45,0,22.11,0Z"/><circle class="cls-3" cx="21.66" cy="3.03" r="0.54"/><circle class="cls-3" cx="21.37" cy="5.11" r="0.66"/><circle class="cls-3" cx="21.01" cy="7.77" r="0.82"/><circle class="cls-3" cx="20.7" cy="10.43" r="1" transform="translate(-2.28 13.51) rotate(-34.36)"/><circle class="cls-3" cx="20.7" cy="13.89" r="1.16" transform="translate(-4.23 14.11) rotate(-34.36)"/><ellipse class="cls-3" cx="40.31" cy="17.84" rx="0.48" ry="0.47"/><ellipse class="cls-3" cx="38.49" cy="18.16" rx="0.58" ry="0.57"/><ellipse class="cls-3" cx="36.17" cy="18.4" rx="0.72" ry="0.7"/><ellipse class="cls-3" cx="33.6" cy="18.58" rx="0.88" ry="0.85"/><ellipse class="cls-3" cx="30.73" cy="18.62" rx="1.02" ry="0.99"/><circle class="cls-3" cx="31.42" cy="37.23" r="0.54" transform="translate(-16.53 28.64) rotate(-39.68)"/><circle class="cls-3" cx="30.32" cy="35.44" r="0.66" transform="translate(-15.64 27.52) rotate(-39.68)"/><circle class="cls-3" cx="28.9" cy="33.16" r="0.82" transform="translate(-14.51 26.09) rotate(-39.68)"/><circle class="cls-3" cx="27.44" cy="30.92" r="1" transform="translate(-9.83 48.79) rotate(-74.04)"/><circle class="cls-3" cx="25.23" cy="28.26" r="1.16" transform="translate(-8.88 44.74) rotate(-74.04)"/><ellipse class="cls-3" cx="1.44" cy="14.49" rx="0.47" ry="0.48" transform="translate(-13.01 12.74) rotate(-77.43)"/><ellipse class="cls-3" cx="3.15" cy="15.05" rx="0.57" ry="0.58" transform="translate(-12.23 14.85) rotate(-77.43)"/><ellipse class="cls-3" cx="5.22" cy="15.47" rx="0.7" ry="0.72" transform="translate(-11.01 17.2) rotate(-77.43)"/><ellipse class="cls-3" cx="7.67" cy="16.2" rx="0.85" ry="0.88" transform="translate(-9.81 20.17) rotate(-77.46)"/><circle class="cls-3" cx="10.1" cy="17.12" r="0.95"/><circle class="cls-3" cx="8.43" cy="36.25" r="0.54" transform="translate(-27.62 26.98) rotate(-62.49)"/><circle class="cls-3" cx="9.65" cy="34.54" r="0.66" transform="translate(-25.44 27.15) rotate(-62.49)"/><circle class="cls-3" cx="11.2" cy="32.35" r="0.82" transform="translate(-22.67 27.34) rotate(-62.49)"/><circle class="cls-3" cx="12.7" cy="30.13" r="1" transform="translate(-3.5 1.73) rotate(-6.85)"/><circle class="cls-3" cx="14.3" cy="27.06" r="1.16" transform="translate(-3.13 1.9) rotate(-6.85)"/><path class="cls-4" d="M21.33,20.49a1.34,1.34,0,0,0-.1-.38,2.85,2.85,0,0,1,0-1,.4.4,0,0,1,0-.15,2.09,2.09,0,0,1,.34-.85,3.12,3.12,0,0,1,.83-.79,2.35,2.35,0,0,1,.39-.19,2.78,2.78,0,0,1,.63-.16A2.68,2.68,0,0,1,26,18.06a3.35,3.35,0,0,1,.28.53c.05.13.06.27.1.39s0,.13,0,.2a5.68,5.68,0,0,1,0,.59,2.51,2.51,0,0,1-.94,1.81,2.61,2.61,0,0,1-3.74-.4s0-.11-.11-.14A1.59,1.59,0,0,1,21.33,20.49Z"/><path class="cls-5" d="M26.22,18.6a2.72,2.72,0,0,0-.61-.89,2.59,2.59,0,0,0-2.69-.58h-.08a1.22,1.22,0,0,0-.44.22,1.93,1.93,0,0,1-.39.3,3.63,3.63,0,0,0-.41.47c-.05,0-.06.14-.15.08a2.58,2.58,0,0,1,2.8-1.42,2.63,2.63,0,0,1,1.66,1,1.8,1.8,0,0,1,.38.8S26.24,18.62,26.22,18.6Z"/><path class="cls-6" d="M25.34,18.46a.15.15,0,0,1,.08.11.91.91,0,0,0,.13.26,1.88,1.88,0,0,1-.73,2.3,1.37,1.37,0,0,0-.32.16.13.13,0,0,1-.12,0,.19.19,0,0,0-.15.06,1.84,1.84,0,0,1-1.82-.56A1.9,1.9,0,0,1,22.73,18a1.87,1.87,0,0,1,2.41.21s.1.06.12.12S25.29,18.43,25.34,18.46Z"/><path class="cls-7" d="M24.84,20.13l0-.09a.3.3,0,0,0,.08-.18,1.22,1.22,0,0,0-.33-1.16.86.86,0,0,0-.14-.13c-.07,0-.07.11-.1.16A.39.39,0,0,1,24,19a.42.42,0,0,1-.33-.43.2.2,0,0,0,0-.15,1.27,1.27,0,0,0-.81.5.61.61,0,0,0-.11.23A1.17,1.17,0,0,0,23,20.39c.06,0,.05-.09.11-.08a.66.66,0,0,1,.32-.14c.05,0,.11,0,.12.06a.43.43,0,0,1,0,.44,1.13,1.13,0,0,0,1.09-.3l.12-.1C24.81,20.24,24.82,20.18,24.84,20.13Z"/><path class="cls-4" d="M23.63,18.39a.45.45,0,1,0,.86.18.65.65,0,0,0-.17-.34.12.12,0,0,0-.13-.07A.53.53,0,0,0,23.63,18.39Z"/><path class="cls-4" d="M23.4,20.14a.41.41,0,0,0-.33.15.11.11,0,0,0-.06.12.62.62,0,0,0,.09.26s.06.06.11.06a.43.43,0,0,0,.33-.06c.14-.16.14-.26,0-.47A.17.17,0,0,0,23.4,20.14Z"/><path class="cls-4" d="M20,20a1.32,1.32,0,0,1,.1-.39,2.8,2.8,0,0,0,0-1c0-.06,0-.1,0-.16a2,2,0,0,0-.35-.84,3,3,0,0,0-.82-.8,3.49,3.49,0,0,0-.39-.19,3.42,3.42,0,0,0-.63-.16,2.6,2.6,0,0,0-2.82,1.63c-.05.13-.06.27-.1.4a1.48,1.48,0,0,1,0,.19c0,.2,0,.4,0,.59a2.63,2.63,0,0,0,4.69,1.41s0-.11.1-.13A2.08,2.08,0,0,0,20,20Z"/><path class="cls-5" d="M15.09,18.08a2.62,2.62,0,0,1,3.3-1.48h.08a1.35,1.35,0,0,1,.43.22,2.79,2.79,0,0,0,.39.31,4.58,4.58,0,0,1,.42.46s.06.15.15.08a2.59,2.59,0,0,0-2.81-1.42,2.65,2.65,0,0,0-1.66,1,2,2,0,0,0-.37.8S15.07,18.09,15.09,18.08Z"/><path class="cls-6" d="M16,17.93a.15.15,0,0,0-.08.11.82.82,0,0,1-.14.26,1.89,1.89,0,0,0,.73,2.3,1.2,1.2,0,0,1,.32.16.16.16,0,0,0,.13,0,.23.23,0,0,1,.15.07,1.86,1.86,0,0,0,1.82-.57,1.9,1.9,0,0,0-.33-2.84,1.87,1.87,0,0,0-2.4.21s-.1.06-.12.12S16,17.9,16,17.93Z"/><path class="cls-7" d="M18.53,19.6l0-.09a.3.3,0,0,0,.08-.18,1.24,1.24,0,0,0-.33-1.16L18.18,18c-.07,0-.07.11-.09.17a.42.42,0,0,1-.44.23.4.4,0,0,1-.32-.42c0-.06,0-.11,0-.16a1.25,1.25,0,0,0-.8.5.57.57,0,0,0-.12.23,1.16,1.16,0,0,0,.28,1.27c.05,0,.05-.09.11-.08a.68.68,0,0,1,.31-.14s.11,0,.13.07a.46.46,0,0,1,0,.44,1.15,1.15,0,0,0,1.1-.31l.12-.1A.2.2,0,0,0,18.53,19.6Z"/><path class="cls-4" d="M17.32,17.86a.45.45,0,0,0,.12.53.45.45,0,0,0,.74-.35A.63.63,0,0,0,18,17.7a.15.15,0,0,0-.14-.07A.54.54,0,0,0,17.32,17.86Z"/><path class="cls-4" d="M17.1,19.61a.43.43,0,0,0-.34.15.11.11,0,0,0-.05.12.61.61,0,0,0,.08.26.11.11,0,0,0,.11.06.47.47,0,0,0,.33-.05c.14-.16.15-.26,0-.47A.14.14,0,0,0,17.1,19.61Z"/><path class="cls-8" d="M20.47,22.47a1.54,1.54,0,0,1,1.39,1.82,1.52,1.52,0,0,1-1.72,1.27,1.55,1.55,0,0,1,.33-3.09Z"/><path class="cls-6" d="M21.59,24.46a1.18,1.18,0,0,1-.38.57,1.24,1.24,0,0,1-1.13.32,1.41,1.41,0,0,1-1-.9.51.51,0,0,1,0-.21,1.35,1.35,0,0,1,.61-.21A2,2,0,0,1,20,24h0c.16,0,.33,0,.5.05h0a2.35,2.35,0,0,1,.81.27A.43.43,0,0,1,21.59,24.46Z"/><path class="cls-9" d="M20.05,24c-.11,0-.23,0-.35,0a4.55,4.55,0,0,0-.7.19A1.34,1.34,0,0,1,19.44,23h0c.18.32.35.64.56.94A.06.06,0,0,1,20.05,24Z"/><path class="cls-9" d="M21.59,24.46a2.22,2.22,0,0,0-.66-.31l-.34-.08a.37.37,0,0,1,.13-.17c.16-.15.32-.31.47-.47l.17-.24a.9.9,0,0,1,.28.5A1.27,1.27,0,0,1,21.59,24.46Z"/><path class="cls-4" d="M21.36,23.19c0,.19-.16.27-.26.38s-.34.33-.51.5h0s0-.1,0-.15a2.37,2.37,0,0,0,0-1.06c0-.11,0-.12.06-.14a1.13,1.13,0,0,1,.74.39Z"/><path class="cls-4" d="M20.05,24a8.38,8.38,0,0,1-.54-.91.17.17,0,0,1,0-.12,1,1,0,0,1,.8-.31c.14,0,.16,0,.1.14a2.12,2.12,0,0,0-.24,1c0,.08,0,.16-.05.22Z"/><path class="cls-9" d="M20.09,24a2.49,2.49,0,0,1,.31-1.31l-.12,0a.37.37,0,0,1,.29,0c-.05,0-.07,0-.05.07a2.32,2.32,0,0,1,.05,1.28A1.91,1.91,0,0,1,20.09,24Z"/></g></g></g></svg>