<svg xmlns="http://www.w3.org/2000/svg" viewBox="0 0 15.8 15.17"><defs><style>.cls-1{fill:#f7cb4e;}.cls-2{fill:#f8aa0c;}</style></defs><title>Asset 1</title><g id="Layer_2" data-name="Layer 2"><g id="Layer_3" data-name="Layer 3"><path class="cls-1" d="M15.72,5.68a1.51,1.51,0,0,0-1.21-1l-3.64-.52L9.24.84a1.49,1.49,0,0,0-2.68,0L4.93,4.14l-3.65.52a1.53,1.53,0,0,0-1.21,1A1.51,1.51,0,0,0,.45,7.22L3.09,9.79l-.62,3.63a1.49,1.49,0,0,0,.59,1.46A1.5,1.5,0,0,0,4.64,15L7.9,13.28,11.16,15a1.56,1.56,0,0,0,.69.17,1.5,1.5,0,0,0,.88-.29,1.47,1.47,0,0,0,.6-1.46l-.62-3.63,2.63-2.57A1.49,1.49,0,0,0,15.72,5.68Z"/><path class="cls-2" d="M15.72,5.68a1.51,1.51,0,0,0-1.21-1h-.06L10.31,8.72a.88.88,0,0,0-.25.79l.87,5.37.23.12a1.56,1.56,0,0,0,.69.17,1.5,1.5,0,0,0,.88-.29,1.47,1.47,0,0,0,.6-1.46l-.62-3.63,2.63-2.57A1.49,1.49,0,0,0,15.72,5.68Z"/></g></g></svg>